<svg width="50" height="50" viewBox="0 0 50 50" fill="none" xmlns="http://www.w3.org/2000/svg">
<path fill-rule="evenodd" clip-rule="evenodd" d="M17.7083 26.0417H15.625V28.125H17.7083V26.0417ZM15.625 23.9584C14.4743 23.9584 13.5416 24.8911 13.5416 26.0417V28.125C13.5416 29.2757 14.4743 30.2084 15.625 30.2084H17.7083C18.8589 30.2084 19.7916 29.2757 19.7916 28.125V26.0417C19.7916 24.8911 18.8589 23.9584 17.7083 23.9584H15.625Z" fill="#DD1D27"/>
<path fill-rule="evenodd" clip-rule="evenodd" d="M26.0417 26.0417H23.9583V28.125H26.0417V26.0417ZM23.9583 23.9584C22.8077 23.9584 21.875 24.8911 21.875 26.0417V28.125C21.875 29.2757 22.8077 30.2084 23.9583 30.2084H26.0417C27.1923 30.2084 28.125 29.2757 28.125 28.125V26.0417C28.125 24.8911 27.1923 23.9584 26.0417 23.9584H23.9583Z" fill="#DD1D27"/>
<path fill-rule="evenodd" clip-rule="evenodd" d="M34.375 26.0417H32.2917V28.125H34.375V26.0417ZM32.2917 23.9584C31.1411 23.9584 30.2084 24.8911 30.2084 26.0417V28.125C30.2084 29.2757 31.1411 30.2084 32.2917 30.2084H34.375C35.5257 30.2084 36.4584 29.2757 36.4584 28.125V26.0417C36.4584 24.8911 35.5257 23.9584 34.375 23.9584H32.2917Z" fill="#DD1D27"/>
<path fill-rule="evenodd" clip-rule="evenodd" d="M17.7083 34.375H15.625V36.4583H17.7083V34.375ZM15.625 32.2916C14.4743 32.2916 13.5416 33.2243 13.5416 34.375V36.4583C13.5416 37.6089 14.4743 38.5416 15.625 38.5416H17.7083C18.8589 38.5416 19.7916 37.6089 19.7916 36.4583V34.375C19.7916 33.2243 18.8589 32.2916 17.7083 32.2916H15.625Z" fill="#DD1D27"/>
<path fill-rule="evenodd" clip-rule="evenodd" d="M26.0417 34.375H23.9583V36.4583H26.0417V34.375ZM23.9583 32.2916C22.8077 32.2916 21.875 33.2243 21.875 34.375V36.4583C21.875 37.6089 22.8077 38.5416 23.9583 38.5416H26.0417C27.1923 38.5416 28.125 37.6089 28.125 36.4583V34.375C28.125 33.2243 27.1923 32.2916 26.0417 32.2916H23.9583Z" fill="#DD1D27"/>
<path fill-rule="evenodd" clip-rule="evenodd" d="M34.375 34.375H32.2917V36.4583H34.375V34.375ZM32.2917 32.2916C31.1411 32.2916 30.2084 33.2243 30.2084 34.375V36.4583C30.2084 37.6089 31.1411 38.5416 32.2917 38.5416H34.375C35.5257 38.5416 36.4584 37.6089 36.4584 36.4583V34.375C36.4584 33.2243 35.5257 32.2916 34.375 32.2916H32.2917Z" fill="#DD1D27"/>
<path fill-rule="evenodd" clip-rule="evenodd" d="M10.4166 11.4583C9.84133 11.4583 9.37496 11.9247 9.37496 12.5V40.625C9.37496 41.2003 9.84133 41.6667 10.4166 41.6667H39.5833C40.1572 41.6667 40.625 41.1995 40.625 40.6227V12.5023C40.625 11.9255 40.1572 11.4583 39.5833 11.4583H36.4583V9.375H39.5833C41.3107 9.375 42.7083 10.7778 42.7083 12.5023V40.6227C42.7083 42.3472 41.3107 43.75 39.5833 43.75H10.4166C8.69074 43.75 7.29163 42.3509 7.29163 40.625V12.5C7.29163 10.7741 8.69074 9.375 10.4166 9.375H15.625V11.4583H10.4166ZM32.2916 11.4583H19.7916V9.375H32.2916V11.4583Z" fill="#DD1D27"/>
<path fill-rule="evenodd" clip-rule="evenodd" d="M40.625 20.8333H9.375V18.75H40.625V20.8333Z" fill="#DD1D27"/>
<path d="M15.625 7.29167C15.625 6.71637 16.0914 6.25 16.6667 6.25C17.242 6.25 17.7083 6.71637 17.7083 7.29167V14.5833C17.7083 15.1586 17.242 15.625 16.6667 15.625C16.0914 15.625 15.625 15.1586 15.625 14.5833V7.29167Z" fill="#DD1D27"/>
<path d="M32.2916 7.29167C32.2916 6.71637 32.758 6.25 33.3333 6.25C33.9086 6.25 34.375 6.71637 34.375 7.29167V14.5833C34.375 15.1586 33.9086 15.625 33.3333 15.625C32.758 15.625 32.2916 15.1586 32.2916 14.5833V7.29167Z" fill="#DD1D27"/>
</svg>
