<svg width="74" height="89" viewBox="0 0 74 89" fill="none" xmlns="http://www.w3.org/2000/svg">
<path d="M37 11.125C20.0416 11.125 6.16663 24.475 6.16663 40.7917C6.16663 48.5792 9.24996 55.9958 14.8 61.1875C14.8 63.4125 13.5666 69.3458 6.16663 77.875C6.16663 77.875 16.9583 77.875 26.2083 68.6042C29.6 69.7167 33.3 70.4583 37 70.4583C53.9583 70.4583 67.8333 57.1083 67.8333 40.7917C67.8333 24.475 53.9583 11.125 37 11.125ZM40.0833 55.625H33.9166V48.2083H40.0833V55.625ZM45.6333 37.0833C44.7083 38.5667 43.475 39.3083 42.2416 40.05C41.3166 40.7917 41.0083 41.1625 40.7 41.9042C40.0833 42.6458 40.0833 43.3875 40.0833 44.5H33.9166C33.9166 42.6458 34.225 41.5333 34.8416 40.4208C35.4583 39.6792 36.6916 38.5667 38.2333 37.4542C39.1583 37.0833 39.775 36.3417 40.0833 35.6C40.3916 34.8583 40.7 33.7458 40.7 33.0042C40.7 31.8917 40.3916 31.15 39.775 30.4083C39.1583 29.6667 38.2333 29.2958 37.3083 29.2958C36.3833 29.2958 35.7666 29.6667 35.15 30.0375C34.5333 30.4083 34.225 31.15 34.225 32.2625H28.0583C28.3666 29.6667 29.2916 27.4417 30.8333 25.9583C32.375 24.475 34.5333 24.1042 37.3083 24.1042C40.0833 24.1042 42.55 24.8458 44.0916 26.3292C45.6333 27.8125 46.5583 30.0375 46.5583 32.6333C46.8666 34.1167 46.5583 35.6 45.6333 37.0833Z" fill="#DD1D27"/>
</svg>
