<svg width="98" height="98" viewBox="0 0 98 98" fill="none" xmlns="http://www.w3.org/2000/svg">
<path d="M38.7917 30.625V36.75H32.6667V40.8333H38.7917V46.9583H42.8751V40.8333H49.0001V36.75H42.8751V30.625H38.7917Z" fill="#920000"/>
<path d="M34.7084 53.0833C33.5808 53.0833 32.6667 53.9974 32.6667 55.125C32.6667 56.2526 33.5808 57.1666 34.7084 57.1666H63.2917C64.4194 57.1666 65.3334 56.2526 65.3334 55.125C65.3334 53.9974 64.4194 53.0833 63.2917 53.0833H34.7084Z" fill="#920000"/>
<path d="M32.6667 65.3334C32.6667 64.2057 33.5808 63.2917 34.7084 63.2917H63.2917C64.4194 63.2917 65.3334 64.2057 65.3334 65.3334C65.3334 66.461 64.4194 67.375 63.2917 67.375H34.7084C33.5808 67.375 32.6667 66.461 32.6667 65.3334Z" fill="#920000"/>
<path d="M34.7084 73.5C33.5808 73.5 32.6667 74.4141 32.6667 75.5417C32.6667 76.6693 33.5808 77.5833 34.7084 77.5833H63.2917C64.4194 77.5833 65.3334 76.6693 65.3334 75.5417C65.3334 74.4141 64.4194 73.5 63.2917 73.5H34.7084Z" fill="#920000"/>
<path fill-rule="evenodd" clip-rule="evenodd" d="M34.7084 14.2917C34.7084 10.909 37.4506 8.16669 40.8334 8.16669H57.1667C60.5496 8.16669 63.2917 10.909 63.2917 14.2917H71.4584C74.8413 14.2917 77.5834 17.034 77.5834 20.4167V83.7084C77.5834 87.0912 74.8413 89.8333 71.4584 89.8333H26.5417C23.1589 89.8333 20.4167 87.0912 20.4167 83.7084V20.4167C20.4167 17.034 23.1589 14.2917 26.5417 14.2917H34.7084ZM57.1667 24.5C60.5496 24.5 63.2917 21.7579 63.2917 18.375H71.4584C72.586 18.375 73.5001 19.2891 73.5001 20.4167V83.7084C73.5001 84.836 72.586 85.75 71.4584 85.75H26.5417C25.4141 85.75 24.5001 84.836 24.5001 83.7084V20.4167C24.5001 19.2891 25.4141 18.375 26.5417 18.375H34.7084C34.7084 21.7579 37.4506 24.5 40.8334 24.5H57.1667ZM40.8334 12.25C39.7058 12.25 38.7917 13.1641 38.7917 14.2917V18.375C38.7917 19.5026 39.7058 20.4167 40.8334 20.4167H57.1667C58.2944 20.4167 59.2084 19.5026 59.2084 18.375V14.2917C59.2084 13.1641 58.2944 12.25 57.1667 12.25H40.8334Z" fill="#920000"/>
</svg>
