<svg width="70" height="64" viewBox="0 0 70 64" fill="none" xmlns="http://www.w3.org/2000/svg">
<path d="M9.74681 61.8763L1.5 53.7578V18.0361C8.09744 18.0361 13.0455 21.2836 13.0455 27.7784V37.5207M59.3332 61.8763L67.58 53.7578V18.0361C60.9826 18.0361 56.0345 21.2836 56.0345 27.7784V37.5207" stroke="#920000" stroke-width="3"/>
<path d="M16.8583 51.6046L13.5266 48.3247C9.52855 44.3889 10.5281 39.469 14.5261 35.5299L27.8958 48.695V63.4999M52.2206 51.6046L55.5523 48.3247C59.5504 44.3889 58.5542 39.469 54.5528 35.5299L41.1831 48.695V63.4999" stroke="#920000" stroke-width="3"/>
<path fill-rule="evenodd" clip-rule="evenodd" d="M17.4698 5.24798C15.6504 7.01645 14.548 9.43265 14.548 11.9552C14.548 17.61 19.4888 22.3568 24.7056 25.773C27.2884 27.4644 29.8773 28.7886 31.8233 29.6904C32.7948 30.1406 33.6027 30.4839 34.1646 30.7137C34.2766 30.7595 34.3788 30.8007 34.4705 30.8374C34.5646 30.7978 34.6697 30.753 34.7852 30.7033C35.3485 30.4606 36.1577 30.0994 37.131 29.6292C39.0799 28.6875 41.673 27.3152 44.26 25.5903C49.4956 22.0998 54.4259 17.354 54.4259 11.9552C54.4259 9.43304 53.3237 7.01683 51.5044 5.24827C49.691 3.48552 47.2147 2.40372 44.4176 2.40372C40.5509 2.40372 37.5518 4.32725 35.6055 7.35512L34.487 9.09541L33.3684 7.35512C31.422 4.32706 28.4229 2.40372 24.5564 2.40372C21.7594 2.40372 19.2832 3.48533 17.4698 5.24798ZM34.487 31.9114C33.9464 32.7691 33.9455 32.7688 33.9455 32.7688L33.9399 32.7667L33.9257 32.7614L33.8747 32.7423C33.8309 32.7258 33.7676 32.7017 33.6861 32.6702C33.5229 32.6071 33.287 32.5142 32.9887 32.3922C32.3921 32.1484 31.5449 31.7881 30.5303 31.318C28.504 30.3789 25.7967 28.9951 23.0833 27.2183C17.7075 23.6979 12.0557 18.4666 12.0557 11.9552C12.0557 9.02792 13.3283 6.19252 15.5101 4.07177C17.6979 1.94515 20.8489 0.5 24.5564 0.5C28.9225 0.5 32.2427 2.36886 34.487 5.00592C36.7311 2.36898 40.0513 0.5 44.4176 0.5C48.1255 0.5 51.2764 1.9454 53.4641 4.07205C55.6458 6.19299 56.9183 9.0284 56.9183 11.9552C56.9183 18.2208 51.256 23.4531 45.899 27.0246C43.1898 28.8307 40.4866 30.2604 38.4633 31.238C37.4504 31.7275 36.6046 32.1052 36.0094 32.3615C35.7117 32.4897 35.4764 32.5877 35.3139 32.6543C35.2328 32.6876 35.1698 32.713 35.1261 32.7304L35.0757 32.7505L35.0616 32.756L35.0575 32.7577L35.0561 32.7582C35.0561 32.7582 35.0552 32.7586 34.487 31.9114ZM34.487 31.9114L35.0561 32.7582L34.5043 32.9742L33.9455 32.7688L34.487 31.9114Z" fill="#920000"/>
<path d="M34.487 31.9114C33.9464 32.7691 33.9455 32.7688 33.9455 32.7688M34.487 31.9114C35.0552 32.7586 35.0561 32.7582 35.0561 32.7582M33.9455 32.7688L34.487 31.9114L35.0561 32.7582M35.0561 32.7582L34.5043 32.9742L33.9455 32.7688L33.9399 32.7667L33.9257 32.7614L33.8747 32.7423C33.8309 32.7258 33.7676 32.7017 33.6861 32.6702C33.5229 32.6071 33.287 32.5142 32.9887 32.3922C32.3921 32.1484 31.5449 31.7881 30.5303 31.318C28.504 30.3789 25.7967 28.9951 23.0833 27.2183C17.7075 23.6979 12.0557 18.4666 12.0557 11.9552C12.0557 9.02792 13.3283 6.19252 15.5101 4.07177C17.6979 1.94515 20.8489 0.5 24.5564 0.5C28.9225 0.5 32.2427 2.36886 34.487 5.00592C36.7311 2.36898 40.0513 0.5 44.4176 0.5C48.1255 0.5 51.2764 1.9454 53.4641 4.07205C55.6458 6.19299 56.9183 9.0284 56.9183 11.9552C56.9183 18.2208 51.256 23.4531 45.899 27.0246C43.1898 28.8307 40.4866 30.2604 38.4633 31.238C37.4504 31.7275 36.6046 32.1052 36.0094 32.3615C35.7117 32.4897 35.4764 32.5877 35.3139 32.6543C35.2328 32.6876 35.1698 32.713 35.1261 32.7304L35.0757 32.7505L35.0616 32.756L35.0575 32.7577L35.0561 32.7582ZM17.4698 5.24798C15.6504 7.01645 14.548 9.43265 14.548 11.9552C14.548 17.61 19.4888 22.3568 24.7056 25.773C27.2884 27.4644 29.8773 28.7886 31.8233 29.6904C32.7948 30.1406 33.6027 30.4839 34.1646 30.7137C34.2766 30.7595 34.3788 30.8007 34.4705 30.8374C34.5646 30.7978 34.6697 30.753 34.7852 30.7033C35.3485 30.4606 36.1577 30.0994 37.131 29.6292C39.0799 28.6875 41.673 27.3152 44.26 25.5903C49.4956 22.0998 54.4259 17.354 54.4259 11.9552C54.4259 9.43304 53.3237 7.01683 51.5044 5.24827C49.691 3.48552 47.2147 2.40372 44.4176 2.40372C40.5509 2.40372 37.5518 4.32725 35.6055 7.35512L34.487 9.09541L33.3684 7.35512C31.422 4.32706 28.4229 2.40372 24.5564 2.40372C21.7594 2.40372 19.2832 3.48533 17.4698 5.24798Z" stroke="#920000"/>
</svg>
