<svg width="100" height="100" viewBox="0 0 100 100" fill="none" xmlns="http://www.w3.org/2000/svg">
<path d="M26.2833 72.5958H48.7167V72.0042C48.7167 71.0375 48.4542 70.1569 47.9292 69.3625C47.4014 68.5681 46.6819 67.9472 45.7708 67.5C44.4347 66.9278 43.0819 66.4986 41.7125 66.2125C40.3403 65.9264 38.9361 65.7833 37.5 65.7833C36.0639 65.7833 34.6611 65.9264 33.2917 66.2125C31.9222 66.4986 30.5694 66.9278 29.2333 67.5C28.3167 67.95 27.5958 68.5708 27.0708 69.3625C26.5431 70.1569 26.2792 71.0375 26.2792 72.0042L26.2833 72.5958ZM60.175 66.1875H73.1583C73.6861 66.1875 74.125 66.0125 74.475 65.6625C74.825 65.3125 75 64.8722 75 64.3417C75 63.8111 74.825 63.3722 74.475 63.025C74.125 62.6778 73.6861 62.5028 73.1583 62.5H60.175C59.6472 62.5 59.2083 62.675 58.8583 63.025C58.5083 63.375 58.3333 63.8139 58.3333 64.3417C58.3333 64.8694 58.5083 65.3097 58.8583 65.6625C59.2083 66.0153 59.6472 66.1903 60.175 66.1875ZM41.0083 61.0375C41.9806 60.0625 42.4667 58.8944 42.4667 57.5333C42.4667 56.1722 41.9806 55.0028 41.0083 54.025C40.0306 53.0528 38.8611 52.5667 37.5 52.5667C36.1389 52.5667 34.9708 53.0528 33.9958 54.025C33.0208 54.9972 32.5333 56.1667 32.5333 57.5333C32.5333 58.8944 33.0194 60.0625 33.9917 61.0375C34.9694 62.0125 36.1389 62.5 37.5 62.5C38.8611 62.5 40.0292 62.0125 41.0042 61.0375M60.175 56.25H73.1583C73.6861 56.25 74.125 56.075 74.475 55.725C74.825 55.375 75 54.9361 75 54.4083C75 53.8806 74.825 53.4403 74.475 53.0875C74.125 52.7403 73.6861 52.5667 73.1583 52.5667H60.175C59.6472 52.5667 59.2083 52.7403 58.8583 53.0875C58.5083 53.4375 58.3333 53.8778 58.3333 54.4083C58.3333 54.9361 58.5083 55.375 58.8583 55.725C59.2083 56.075 59.6472 56.25 60.175 56.25ZM19.2333 87.5C17.3139 87.5 15.7125 86.8583 14.4292 85.575C13.1458 84.2917 12.5028 82.6903 12.5 80.7708V40.0625C12.5 38.1458 13.1431 36.5458 14.4292 35.2625C15.7153 33.9792 17.3153 33.3361 19.2292 33.3333H41.6667V16.6667C41.6667 15.4972 42.0694 14.5111 42.875 13.7083C43.6778 12.9028 44.6639 12.5 45.8333 12.5H54.1667C55.3361 12.5 56.3222 12.9028 57.125 13.7083C57.9306 14.5111 58.3333 15.4972 58.3333 16.6667V33.3333H80.7708C82.6875 33.3333 84.2875 33.9764 85.5708 35.2625C86.8542 36.5486 87.4972 38.15 87.5 40.0667V80.7708C87.5 82.6875 86.8569 84.2889 85.5708 85.575C84.2847 86.8611 82.6847 87.5028 80.7708 87.5H19.2333ZM19.2333 83.3333H80.7708C81.5181 83.3333 82.1319 83.093 82.6125 82.6125C83.093 82.1319 83.3333 81.5181 83.3333 80.7708V40.0625C83.3333 39.3153 83.093 38.7014 82.6125 38.2208C82.1319 37.7403 81.5181 37.5 80.7708 37.5H58.3333V40.7083C58.3333 41.8222 57.9181 42.7944 57.0875 43.625C56.2569 44.4556 55.2833 44.8722 54.1667 44.875H45.8333C44.7167 44.875 43.7431 44.4583 42.9125 43.625C42.0819 42.7917 41.6667 41.8194 41.6667 40.7083V37.5H19.2333C18.4833 37.5 17.8681 37.7403 17.3875 38.2208C16.9069 38.7014 16.6667 39.3167 16.6667 40.0667V80.7708C16.6667 81.5181 16.9069 82.1319 17.3875 82.6125C17.8681 83.093 18.4833 83.3333 19.2333 83.3333ZM45.8333 40.7083H54.1667V16.6667H45.8333V40.7083Z" fill="#DD1D27"/>
</svg>
