<svg width="48" height="48" viewBox="0 0 48 48" fill="none" xmlns="http://www.w3.org/2000/svg">
<path d="M12 10C13.1046 10 14 9.10457 14 8C14 6.89543 13.1046 6 12 6C11.2597 6 10.6134 6.4022 10.2676 7H10C8.34315 7 7 8.34315 7 10V19H9V10C9 9.44772 9.44772 9 10 9H10.2676C10.6134 9.5978 11.2597 10 12 10Z" fill="#920000"/>
<path fill-rule="evenodd" clip-rule="evenodd" d="M10.1603 19H9.00012H7.00012C6.44784 19 5.99543 19.4487 6.04555 19.9987C6.27804 22.5499 7.3958 24.952 9.22198 26.7782C10.5611 28.1173 12.2099 29.0755 14.0001 29.583V32C14.0001 33.3064 14.8351 34.4177 16.0005 34.8294C16.0431 38.7969 19.2726 42 23.2501 42C27.2542 42 30.5001 38.7541 30.5001 34.75V30.75C30.5001 28.6789 32.179 27 34.2501 27C36.3212 27 38.0001 28.6789 38.0001 30.75V33.1707C36.8349 33.5825 36.0001 34.6938 36.0001 36C36.0001 37.6569 37.3432 39 39.0001 39C40.657 39 42.0001 37.6569 42.0001 36C42.0001 34.6938 41.1653 33.5825 40.0001 33.1707V30.75C40.0001 27.5744 37.4257 25 34.2501 25C31.0745 25 28.5001 27.5744 28.5001 30.75V34.75C28.5001 37.6495 26.1496 40 23.2501 40C20.377 40 18.043 37.6921 18.0007 34.8291C19.1656 34.4171 20.0001 33.306 20.0001 32V29.583C21.7903 29.0755 23.4392 28.1173 24.7783 26.7782C26.6045 24.952 27.7222 22.5499 27.9547 19.9987C28.0049 19.4487 27.5524 19 27.0001 19V10C27.0001 8.34315 25.657 7 24.0001 7H23.7325C23.3867 6.4022 22.7404 6 22.0001 6C20.8955 6 20.0001 6.89543 20.0001 8C20.0001 9.10457 20.8955 10 22.0001 10C22.7404 10 23.3867 9.5978 23.7325 9H24.0001C24.5524 9 25.0001 9.44772 25.0001 10V19H23.84C23.2877 19 22.8487 19.4509 22.7546 19.9952C22.5506 21.1746 21.9873 22.2717 21.1295 23.1294C20.0344 24.2246 18.549 24.8399 17.0001 24.8399C15.4513 24.8399 13.9659 24.2246 12.8707 23.1294C12.013 22.2717 11.4496 21.1746 11.2456 19.9952C11.1515 19.4509 10.7125 19 10.1603 19ZM24.5806 21H25.7751C25.4014 22.6396 24.5722 24.1559 23.3641 25.364C21.6763 27.0518 19.3871 28 17.0001 28C14.6132 28 12.324 27.0518 10.6362 25.364C9.42809 24.1559 8.59889 22.6396 8.22514 21H9.41965C9.77036 22.3291 10.4677 23.5548 11.4565 24.5436C12.9268 26.0139 14.9209 26.8399 17.0001 26.8399C19.0794 26.8399 21.0735 26.0139 22.5438 24.5436C23.5326 23.5548 24.2299 22.3291 24.5806 21ZM39.0001 35C39.5524 35 40.0001 35.4477 40.0001 36C40.0001 36.5523 39.5524 37 39.0001 37C38.4478 37 38.0001 36.5523 38.0001 36C38.0001 35.4477 38.4478 35 39.0001 35ZM18.0001 30V32C18.0001 32.5523 17.5524 33 17.0001 33C16.4478 33 16.0001 32.5523 16.0001 32V30H18.0001Z" fill="#920000"/>
</svg>
