<svg width="234" height="260" viewBox="0 0 234 260" fill="none" xmlns="http://www.w3.org/2000/svg">
<path fill-rule="evenodd" clip-rule="evenodd" d="M45.4943 246.216V247.73C45.4943 254.506 39.6749 260 32.4959 260H12.9984C5.81956 260 0 254.506 0 247.73V180.274C0 173.498 5.81956 168.004 12.9984 168.004H32.4959C38.6441 168.004 43.7954 172.034 45.1479 177.448C53.7554 174.52 63.809 171.034 66.885 169.71C69.4977 168.587 72.5146 168.206 75.0214 168.069C77.6574 167.925 80.3923 168.025 82.7853 168.199C85.1991 168.376 87.39 168.639 88.9719 168.856C89.7661 168.965 90.416 169.064 90.8742 169.136C91.1036 169.173 91.2856 169.203 91.4143 169.225L91.567 169.25L91.6118 169.258L91.6352 169.262L91.7516 169.283L135.223 178.488L135.495 178.571L135.569 178.592L135.869 178.679C136.142 178.756 136.558 178.871 137.093 179.011C138.166 179.292 139.709 179.671 141.548 180.049C145.285 180.818 149.991 181.537 154.38 181.537C158.435 181.537 162.63 182.963 164.872 186.84C166.798 190.168 166.349 193.823 165.628 196.353C164.731 199.503 162.872 202.818 160.509 205.634C163.698 204.498 167.184 203.153 170.927 201.704L171.727 201.394C182.275 197.308 194.782 192.462 205.815 190.74C218.421 188.772 227.597 193.091 231.756 200.755C235.459 207.576 234.599 216.53 229.027 221.924C227.628 223.278 225.497 224.698 223.357 226.009C221.072 227.408 218.257 228.989 215.129 230.663C208.866 234.017 201.111 237.872 193.326 241.599C177.91 248.979 161.75 256.156 156.615 257.931C150.665 259.989 144.273 260.183 138.126 259.885C134.777 259.722 130.888 259.357 127.021 258.994C124.228 258.732 121.448 258.471 118.893 258.288C106.364 257.392 96.7475 254.506 87.8897 251.847L86.8128 251.523C77.6646 248.782 69.1539 246.351 57.8778 245.922C55.2996 245.824 50.1516 246.003 45.4943 246.216ZM72.2761 180.875C72.6927 180.696 73.7976 180.426 75.7707 180.318C77.6139 180.218 79.717 180.282 81.7825 180.432C83.8271 180.582 85.7171 180.808 87.1008 180.998C87.7884 181.092 88.3428 181.177 88.7178 181.236C88.9056 181.266 89.0473 181.29 89.1389 181.305L89.1532 181.307L131.837 190.346L132.13 190.43C132.485 190.531 132.99 190.67 133.621 190.835C134.883 191.166 136.663 191.601 138.778 192.037C142.581 192.82 147.676 193.646 152.871 193.786C152.5 194.778 151.873 195.95 151.023 197.116C149.986 198.539 148.846 199.64 147.911 200.27C145.203 202.096 143.018 202.859 141.692 203.184C141.021 203.349 140.548 203.406 140.315 203.426L140.215 203.433L140.178 203.435L105.329 203.037L104.085 215.207L105.25 209.172L104.092 215.208L104.437 215.267L105.428 215.435C106.286 215.581 107.522 215.788 109.041 216.039C112.076 216.541 116.245 217.217 120.778 217.914C129.711 219.288 140.477 220.811 146.586 221.159C150.804 221.399 155.718 220.177 160.287 218.736C165.056 217.234 170.442 215.154 175.859 213.056C187.021 208.734 198.385 204.337 207.936 202.846C216.193 201.556 219.132 204.403 220.188 206.349C221.701 209.138 220.878 212.237 219.72 213.358C219.436 213.633 218.413 214.411 216.284 215.714C214.3 216.929 211.73 218.377 208.717 219.99C202.698 223.213 195.141 226.972 187.447 230.656C171.904 238.097 156.433 244.928 152.145 246.41C148.673 247.611 144.383 247.903 138.795 247.631C135.494 247.471 132.362 247.17 128.948 246.842C126.189 246.577 123.244 246.295 119.875 246.053C108.88 245.267 100.52 242.76 91.5624 240.074L90.7461 239.829C81.4679 237.049 71.5398 234.162 58.401 233.662C55.4432 233.55 50.1776 233.722 45.4943 233.931V190.368C54.6289 187.282 68.1576 182.648 72.2761 180.875ZM90.4439 175.293L91.6352 169.262C91.6352 169.262 91.6352 169.262 90.4439 175.293ZM32.4959 180.274H12.9984V247.73H32.4959V180.274Z" fill="#DD1D27"/>
<path d="M150.962 3.47168V3.4707L151.005 3.50391L151.17 3.62891L151.791 4.10449C152.331 4.52116 153.117 5.13427 154.115 5.92773C156.111 7.51469 158.953 9.82568 162.358 12.7393C169.166 18.563 178.247 26.811 187.336 36.5049C196.326 46.0931 205.507 57.2844 212.435 69.0625C219.368 80.8505 224 93.1494 224 104.973C224 120.198 215.505 133.931 201.707 143.896C187.909 153.86 168.87 160 148 160C127.13 160 108.091 153.86 94.293 143.896C80.4952 133.931 72.0001 120.198 72 104.973C72 93.1494 76.6316 80.8505 83.5654 69.0625C90.4934 57.2844 99.6741 46.0931 108.664 36.5049C117.753 26.811 126.834 18.563 133.642 12.7393C137.047 9.82568 139.889 7.51469 141.885 5.92773C142.384 5.53096 142.83 5.17946 143.219 4.875L144.209 4.10449C144.479 3.89657 144.687 3.73636 144.831 3.62695L144.995 3.50391L145.04 3.46973L145.044 3.46777L145.062 3.45312L145.062 3.45215L147.999 1.24902L150.962 3.47168ZM147.375 10.4893C145.482 12.0043 142.921 14.0996 139.9 16.6836C133.233 22.3881 124.346 30.4594 115.469 39.9277C106.491 49.5027 97.7054 60.3167 91.1592 71.4385C84.6199 82.5484 80.2666 94.0478 80.2666 104.973C80.2667 118.46 87.8601 130.722 100.071 139.574C112.285 148.428 129.179 153.926 148 153.926C166.821 153.926 183.715 148.428 195.929 139.574C208.14 130.722 215.733 118.46 215.733 104.973C215.733 94.0478 211.38 82.5484 204.841 71.4385C198.295 60.3167 189.509 49.5027 180.531 39.9277C171.654 30.4595 162.768 22.3881 156.101 16.6836H156.1C153.079 14.0996 150.518 12.0043 148.625 10.4893L148 9.98926L147.375 10.4893Z" fill="#DD1D27" stroke="#DD1D27" stroke-width="2"/>
<path d="M163.659 57C169.991 57.0001 175.376 59.7128 179.109 63.6963C182.827 67.6637 185 72.97 185 78.459C185 84.3382 182.579 89.6786 179.104 94.3203C175.631 98.9608 171.063 102.959 166.66 106.181C162.202 109.443 157.759 112.021 154.438 113.782C152.775 114.664 151.385 115.346 150.404 115.81C150.21 115.901 150.03 115.982 149.869 116.057L149.882 116.077L148.853 116.519L148.854 116.52L148.83 116.529L148.821 116.533L147.923 116.919L147.54 117.083L147.154 116.928L146.245 116.561L146.23 116.555L146.229 116.554L146.206 116.545V116.544L145.179 116.131L145.19 116.108C145.028 116.037 144.848 115.961 144.652 115.873C143.669 115.432 142.275 114.781 140.608 113.934C137.281 112.241 132.829 109.744 128.36 106.532C119.582 100.223 110 90.6161 110 78.459C110 72.969 112.173 67.6625 115.892 63.6953C119.625 59.7119 125.01 57.0001 131.341 57C138.299 57 143.709 60.0634 147.5 64.4688C151.29 60.0635 156.7 57 163.659 57ZM163.659 62.4004C157.793 62.4004 153.209 65.5812 150.183 70.749L148.363 73.8574L147.5 75.3311L146.637 73.8574L144.817 70.749C141.791 65.5809 137.207 62.4004 131.341 62.4004C127.087 62.4005 123.315 64.2021 120.539 67.1641C117.747 70.143 116.056 74.2159 116.056 78.459C116.056 88.0313 123.71 96.247 132.167 102.326C136.316 105.309 140.483 107.648 143.619 109.243C145.183 110.039 146.482 110.645 147.384 111.05C147.41 111.061 147.437 111.073 147.462 111.084C147.493 111.069 147.525 111.055 147.558 111.04C148.462 110.612 149.766 109.974 151.334 109.143C154.477 107.476 158.653 105.049 162.812 102.005C167.026 98.9214 171.077 95.3107 174.067 91.3145C177.058 87.3182 178.944 82.9945 178.944 78.459C178.944 74.2164 177.253 70.1432 174.461 67.1641C171.685 64.202 167.913 62.4005 163.659 62.4004Z" fill="#DD1D27" stroke="#DD1D27" stroke-width="2"/>
</svg>
