<svg width="100" height="100" viewBox="0 0 100 100" fill="none" xmlns="http://www.w3.org/2000/svg">
<path d="M49.9999 21.8752C48.1366 20.9435 48.136 20.9448 48.136 20.9448L48.1337 20.9493L48.1291 20.9585L48.1158 20.9856L48.0726 21.0754C48.0368 21.1506 47.9877 21.2562 47.9281 21.3891C47.8089 21.655 47.6474 22.0316 47.4695 22.4946C47.1158 23.4141 46.6847 24.7031 46.3945 26.1541C45.8441 28.9066 45.6614 32.9829 48.5268 35.8483C49.8281 37.1496 50.0108 39.3233 49.5195 41.7791C49.2889 42.9323 48.9387 43.9871 48.6414 44.7602C48.4939 45.1437 48.3622 45.4504 48.2697 45.6568C48.2237 45.7598 48.1874 45.8373 48.1641 45.886L48.1395 45.9375L48.136 45.9446C48.136 45.9446 48.1366 45.9435 49.9999 46.8752C51.8633 47.8068 51.8645 47.8043 51.8645 47.8043L51.8662 47.801L51.8708 47.7921L51.8841 47.7648L51.9272 47.6752C51.9631 47.6 52.0122 47.4941 52.0718 47.3612C52.191 47.0954 52.3524 46.7187 52.5304 46.2558C52.8841 45.3362 53.3151 44.0473 53.6054 42.5962C54.1558 39.8437 54.3385 35.7675 51.4731 32.9021C50.1718 31.6008 49.9891 29.4271 50.4804 26.9712C50.711 25.8181 51.0612 24.7633 51.3585 23.9902C51.506 23.6066 51.6376 23.3 51.7301 23.0935C51.7762 22.9906 51.8124 22.9131 51.8358 22.8643L51.8604 22.8129L51.8639 22.8058C51.8639 22.8058 51.8633 22.8068 49.9999 21.8752Z" fill="#DD1D27"/>
<path fill-rule="evenodd" clip-rule="evenodd" d="M8.33325 60.4169C8.33325 59.2663 9.266 58.3336 10.4166 58.3336H89.5833C90.7339 58.3336 91.6666 59.2663 91.6666 60.4169C91.6666 61.5675 90.7339 62.5002 89.5833 62.5002H83.3333C83.3333 71.705 75.8714 79.1669 66.6666 79.1669H33.3333C24.1285 79.1669 16.6666 71.705 16.6666 62.5002H10.4166C9.266 62.5002 8.33325 61.5675 8.33325 60.4169ZM20.8333 62.5002H79.1666C79.1666 69.4038 73.5701 75.0002 66.6666 75.0002H33.3333C26.4297 75.0002 20.8333 69.4038 20.8333 62.5002Z" fill="#DD1D27"/>
<path d="M31.6057 25.9192C31.6057 25.9192 31.6067 25.9179 33.3334 27.0836C35.0601 28.2492 35.0609 28.2481 35.0609 28.2481L35.0353 28.2877C35.0113 28.325 34.973 28.3859 34.9234 28.4673C34.8244 28.6311 34.6824 28.8763 34.5232 29.1829C34.2001 29.8054 33.8286 30.6379 33.5869 31.5329C33.0851 33.3917 33.2655 34.8573 34.5734 35.8263C37.953 38.3296 37.7726 42.0723 37.1026 44.5538C36.7582 45.829 36.2507 46.9494 35.8415 47.7375C35.6346 48.1363 35.4469 48.4609 35.308 48.6904C35.2384 48.8054 35.1807 48.8973 35.1382 48.9634L35.0951 49.03L35.0865 49.0429L35.0699 49.0679L35.0642 49.0765L35.0619 49.0798C35.0619 49.0798 35.0601 49.0825 33.3334 47.9169C31.6067 46.7513 31.6059 46.7525 31.6059 46.7525L31.6315 46.7127C31.6555 46.6754 31.6938 46.6148 31.7434 46.5331C31.8424 46.3694 31.9844 46.1244 32.1436 45.8175C32.4667 45.1952 32.8382 44.3625 33.0799 43.4675C33.5817 41.6088 33.4013 40.1431 32.0934 39.1744C28.7138 36.6709 28.8942 32.9281 29.5642 30.4467C29.9086 29.1717 30.4161 28.0511 30.8253 27.2629C31.0321 26.8644 31.2199 26.5398 31.3588 26.31C31.4284 26.195 31.4861 26.1031 31.5286 26.0371C31.5499 26.0042 31.5671 25.9775 31.5803 25.9575L31.5969 25.9325L31.6026 25.924L31.6057 25.9192Z" fill="#DD1D27"/>
<path d="M68.7499 27.0836C67.0232 25.9179 67.0222 25.9192 67.0222 25.9192L67.0191 25.924L67.0134 25.9325L66.9968 25.9575C66.9837 25.9775 66.9664 26.0042 66.9451 26.0371C66.9026 26.1031 66.8449 26.195 66.7753 26.31C66.6364 26.5398 66.4487 26.8644 66.2418 27.2629C65.8326 28.0511 65.3251 29.1717 64.9807 30.4467C64.3107 32.9281 64.1303 36.6709 67.5099 39.1744C68.8178 40.1431 68.9982 41.6088 68.4964 43.4675C68.2547 44.3625 67.8832 45.1952 67.5601 45.8175C67.4009 46.1244 67.2589 46.3694 67.1597 46.5331C67.1103 46.6148 67.072 46.6754 67.048 46.7127L67.0224 46.7525C67.0224 46.7525 67.0232 46.7513 68.7499 47.9169C70.4766 49.0825 70.4784 49.0798 70.4784 49.0798L70.4807 49.0765L70.4864 49.0679L70.503 49.0429L70.5359 48.9925L70.5547 48.9634C70.5972 48.8973 70.6549 48.8054 70.7245 48.6904C70.8634 48.4609 71.0512 48.1363 71.258 47.7375C71.6672 46.9494 72.1747 45.829 72.5191 44.5538C73.1891 42.0723 73.3695 38.3296 69.9899 35.8263C68.682 34.8573 68.5016 33.3917 69.0034 31.5329C69.2451 30.6379 69.6166 29.8054 69.9397 29.1829C70.0989 28.8763 70.2409 28.6311 70.3399 28.4673C70.3895 28.3859 70.4278 28.325 70.4518 28.2877L70.4774 28.2481C70.4774 28.2481 70.4766 28.2492 68.7499 27.0836Z" fill="#DD1D27"/>
</svg>
