<svg width="98" height="98" viewBox="0 0 98 98" fill="none" xmlns="http://www.w3.org/2000/svg">
<path fill-rule="evenodd" clip-rule="evenodd" d="M34.7083 49C42.6044 49 49 42.6045 49 34.7084C49 26.8122 42.6044 20.4167 34.7083 20.4167C26.8121 20.4167 20.4166 26.8122 20.4166 34.7084C20.4166 42.6045 26.8121 49 34.7083 49ZM44.9166 34.7084C44.9166 40.3493 40.3492 44.9167 34.7083 44.9167C29.0674 44.9167 24.5 40.3493 24.5 34.7084C24.5 29.0674 29.0674 24.5 34.7083 24.5C40.3492 24.5 44.9166 29.0674 44.9166 34.7084Z" fill="#920000"/>
<path fill-rule="evenodd" clip-rule="evenodd" d="M8.16663 77.5833V66.15C8.16663 57.4606 25.8499 53.0833 34.7083 53.0833C40.6009 53.0833 50.3987 55.0202 56.2987 58.8751C60.5039 57.7379 65.1161 57.1666 68.3958 57.1666C72.189 57.1666 77.2791 57.9306 81.4812 59.4752C83.5784 60.2463 85.5844 61.2581 87.1019 62.5695C88.6303 63.8901 89.8333 65.6755 89.8333 67.9195V77.5833H8.16663ZM12.25 66.15C12.25 65.502 12.5471 64.6159 13.8142 63.4644C15.1064 62.2902 17.0953 61.1501 19.6139 60.1567C24.6551 58.1683 30.7813 57.1666 34.7083 57.1666C38.6352 57.1666 44.7615 58.1683 49.8027 60.1567C52.3213 61.1501 54.3101 62.2902 55.6023 63.4644C56.8694 64.6159 57.1666 65.502 57.1666 66.15V73.5H12.25V66.15ZM59.9294 62.2079C63.0174 61.5695 66.1161 61.25 68.3958 61.25C71.7574 61.25 76.3652 61.9452 80.0723 63.3078C81.9296 63.9905 83.4312 64.7943 84.4323 65.6594C85.4229 66.5152 85.75 67.2668 85.75 67.9195V73.5H61.25V66.15C61.25 64.719 60.7704 63.4048 59.9294 62.2079Z" fill="#920000"/>
<path fill-rule="evenodd" clip-rule="evenodd" d="M79.625 41.8542C79.625 48.0582 74.5998 53.0833 68.3958 53.0833C62.1918 53.0833 57.1666 48.0582 57.1666 41.8542C57.1666 35.65 62.1918 30.625 68.3958 30.625C74.5998 30.625 79.625 35.65 79.625 41.8542ZM68.3958 49C72.3448 49 75.5416 45.8032 75.5416 41.8542C75.5416 37.9052 72.3448 34.7083 68.3958 34.7083C64.4468 34.7083 61.25 37.9052 61.25 41.8542C61.25 45.8032 64.4468 49 68.3958 49Z" fill="#920000"/>
</svg>
