<svg width="113" height="95" viewBox="0 0 113 95" fill="none" xmlns="http://www.w3.org/2000/svg">
<path fill-rule="evenodd" clip-rule="evenodd" d="M76.5 27.9545C76.5 26.8751 77.6193 26 79 26H89C90.3807 26 91.5 26.8751 91.5 27.9545V31.8636H99C100.381 31.8636 101.5 32.7387 101.5 33.8182V45.5455H109V49.4545H101.5V61.1818C101.5 62.2613 100.381 63.1364 99 63.1364H91.5V67.0455C91.5 68.125 90.3807 69 89 69H79C77.6193 69 76.5 68.125 76.5 67.0455V49.4545H41.5V67.0455C41.5 68.125 40.3807 69 39 69H29C27.6193 69 26.5 68.125 26.5 67.0455V63.1364H19C17.6193 63.1364 16.5 62.2613 16.5 61.1818V49.4545H9V45.5455H16.5V33.8182C16.5 32.7387 17.6193 31.8636 19 31.8636H26.5V27.9545C26.5 26.8751 27.6193 26 29 26H39C40.3807 26 41.5 26.8751 41.5 27.9545V45.5455H76.5V27.9545ZM31.5 65.0909H36.5V29.9091H31.5V65.0909ZM26.5 35.7727H21.5V59.2273H26.5V35.7727ZM91.5 59.2273V35.7727H96.5V59.2273H91.5ZM86.5 29.9091V65.0909H81.5V29.9091H86.5Z" fill="#920000"/>
</svg>
