<svg width="50" height="50" viewBox="0 0 50 50" fill="none" xmlns="http://www.w3.org/2000/svg">
<path d="M25 6.24976C14.6447 6.24976 6.25 14.6444 6.25 24.9998C6.25 35.3551 14.6447 43.7498 25 43.7498C35.3553 43.7498 43.75 35.3551 43.75 24.9998C43.75 23.1265 43.4753 21.3174 42.964 19.6105L40.968 20.2094C41.4225 21.7266 41.6667 23.3346 41.6667 24.9998C41.6667 34.2045 34.2048 41.6665 25 41.6665C15.7952 41.6665 8.33333 34.2045 8.33333 24.9998C8.33333 15.795 15.7952 8.33309 25 8.33309V6.24976Z" fill="#DD1D27"/>
<path d="M18.9208 15.9556C18.6332 15.4574 18.8039 14.8203 19.3022 14.5327L22.0819 12.9278C22.4235 12.7306 22.8474 12.7433 23.1766 12.9607C23.5058 13.1781 23.6841 13.5628 23.6369 13.9546L23.1661 17.8611L24.4891 17.0974C24.9873 16.8097 25.6244 16.9804 25.9121 17.4786C26.1997 17.9769 26.0289 18.614 25.5307 18.9016L22.4036 20.7071C22.062 20.9044 21.6381 20.8917 21.3088 20.6743C20.9796 20.4569 20.8014 20.0721 20.8486 19.6803L21.3193 15.7737L20.3438 16.337C19.8456 16.6246 19.2085 16.4539 18.9208 15.9556Z" fill="#DD1D27"/>
<path d="M27.6296 8.40532C27.0738 8.55422 26.7441 9.1254 26.8929 9.6811C27.0419 10.2368 27.613 10.5666 28.1687 10.4176L30.181 9.87847L28.047 15.1953C27.9 15.5615 27.9725 15.9793 28.2343 16.2745C28.496 16.5697 28.9022 16.6916 29.2832 16.5895L33.811 15.3763C34.3668 15.2274 34.6966 14.6562 34.5476 14.1005C34.3987 13.5448 33.8275 13.215 33.2719 13.364L30.7565 14.0379L32.8905 8.7211C33.0375 8.35494 32.965 7.93717 32.7032 7.64197C32.4415 7.34676 32.0353 7.22479 31.6543 7.32691L27.6296 8.40532Z" fill="#DD1D27"/>
<path d="M37.037 7.29142C37.037 6.71612 37.5034 6.24976 38.0787 6.24976H42.7083C43.0869 6.24976 43.4358 6.45525 43.6193 6.78645C43.803 7.11765 43.7923 7.52239 43.5916 7.8435L39.3793 14.5831H42.7083C43.2836 14.5831 43.7499 15.0495 43.7499 15.6248C43.7499 16.2 43.2836 16.6665 42.7083 16.6665H37.4999C37.1213 16.6665 36.7724 16.4609 36.5889 16.1297C36.4053 15.7985 36.4159 15.3938 36.6166 15.0727L40.8289 8.33309H38.0787C37.5034 8.33309 37.037 7.86671 37.037 7.29142Z" fill="#DD1D27"/>
<path d="M15.0041 29.8421C14.1989 29.5861 13.5045 29.0091 13.4254 28.2348C13.4096 28.0798 13.4641 27.9257 13.5739 27.8151C13.6837 27.7045 13.8372 27.6487 13.9923 27.6633C16.0039 27.8524 17.9315 26.8842 19.2788 24.6848C19.3717 24.5332 19.5355 24.4394 19.7133 24.4361C19.8912 24.4329 20.0583 24.5206 20.1568 24.6687C20.5756 25.2992 20.6173 26.2905 20.3156 27.1946C20.0034 28.1304 19.2989 29.0647 18.0948 29.5857C16.9367 30.0867 15.8454 30.1096 15.0041 29.8421Z" fill="#DD1D27"/>
<path d="M33.0618 25.0036C33.6312 24.3793 33.944 23.5325 33.6253 22.8223C33.5614 22.6801 33.4373 22.574 33.2869 22.5331C33.1365 22.4921 32.9757 22.5207 32.8486 22.6109C31.2011 23.7804 29.0478 23.9058 26.7812 22.6746C26.6248 22.5897 26.4361 22.5905 26.2805 22.6766C26.1248 22.7626 26.0239 22.9222 26.0128 23.0997C25.9653 23.8553 26.4247 24.7344 27.1381 25.3666C27.8763 26.021 28.9537 26.4778 30.2569 26.3269C31.5105 26.1818 32.4669 25.656 33.0618 25.0036Z" fill="#DD1D27"/>
<path fill-rule="evenodd" clip-rule="evenodd" d="M33.7998 33.182C31.4551 29.9693 27.9803 28.2708 24.7299 29.1418C21.4795 30.0127 19.3195 33.221 18.8953 37.1756C18.7759 38.289 19.857 39.0748 20.9386 38.785L32.8349 35.5974C33.9165 35.3075 34.4599 34.0865 33.7998 33.182ZM25.2691 31.1542C27.2413 30.6257 29.6597 31.4727 31.6115 33.7683L21.0835 36.5893C21.6261 33.6253 23.297 31.6826 25.2691 31.1542Z" fill="#DD1D27"/>
</svg>
