<svg width="46" height="40" viewBox="0 0 46 40" fill="none" xmlns="http://www.w3.org/2000/svg">
<path d="M19.6539 3.62365C18.1887 1.74121 15.9847 0.477896 13.5244 0.110393C11.0642 -0.257111 8.54837 0.301145 6.52785 1.6629C6.3574 1.77341 6.2127 1.91506 6.1025 2.07927C5.9923 2.24349 5.91887 2.42687 5.88666 2.61834C5.85446 2.80981 5.86413 3.0054 5.91511 3.19327C5.96608 3.38115 6.0573 3.55743 6.18325 3.71145C6.65316 4.29675 7.46766 4.5016 8.12553 4.17969L8.34482 4.03336C11.1643 2.13114 15.0801 2.71644 17.1164 5.35029L0.638352 16.5295C-0.0508442 16.9977 -0.20748 17.905 0.293754 18.5488C0.794988 19.2219 1.76613 19.3682 2.48665 18.9L3.73974 18.022L9.28463 25.1334L10.5377 24.2554L12.386 26.6259L9.84852 28.3525C9.15932 28.8208 9.00269 29.7573 9.50392 30.4011C10.0052 31.0449 10.9763 31.1912 11.6968 30.723L28.1436 19.5438L29.9918 21.9143L28.7388 22.7629C28.5718 22.876 28.4304 23.0189 28.3227 23.1831C28.2149 23.3474 28.143 23.53 28.111 23.7203C28.0789 23.9107 28.0875 24.1051 28.1361 24.2923C28.1847 24.4795 28.2724 24.656 28.3942 24.8115L35.756 34.2933C36.2573 34.9372 37.2284 35.0835 37.9489 34.6152L39.202 33.7373L41.0503 36.1078L46 40L43.5878 34.4104L41.7395 32.0399L43.0239 31.162C43.7131 30.6937 43.8698 29.7865 43.3685 29.1134L35.9753 19.6609C35.8582 19.5045 35.7087 19.3718 35.5356 19.2706C35.3624 19.1694 35.1693 19.1018 34.9676 19.0718C34.7659 19.0417 34.5598 19.0499 34.3616 19.0958C34.1634 19.1417 33.9771 19.2244 33.8138 19.3389L32.5293 20.1876L30.681 17.8172L35.756 14.3932L36.6959 15.5638C37.1971 16.2076 38.1682 16.3539 38.8574 15.8857L41.3949 14.159C42.1154 13.6908 42.2721 12.7836 41.7395 12.1398L38.0742 7.39883C37.9559 7.23961 37.8043 7.10443 37.6285 7.00148C37.4527 6.89853 37.2564 6.82994 37.0515 6.79986C36.8465 6.76977 36.6371 6.77881 36.436 6.82643C36.2349 6.87405 36.0462 6.95926 35.8813 7.07692L33.3438 8.77429C32.6547 9.27179 32.498 10.179 32.9993 10.8228L33.9077 12.0227L28.8641 15.4467L21.4709 5.99412L22.7553 5.11617C23.4445 4.64793 23.6011 3.74071 23.0999 3.06762C22.8523 2.75645 22.4839 2.54842 22.0738 2.48823C21.6638 2.42803 21.2449 2.52048 20.907 2.74571L19.6539 3.62365ZM18.9647 7.69148L26.3266 17.1733L22.5047 19.7486L20.6877 17.3782L21.9408 16.5295L16.4272 9.41812L18.9647 7.69148ZM8.81473 14.598L11.3522 12.8714L16.8658 19.9828L18.1502 19.1048L19.9672 21.4753L14.9235 24.9285L13.0752 22.5581L14.3283 21.6801L8.81473 14.598Z" fill="#DD1D27"/>
</svg>
